<?xml version="1.0" encoding="UTF-8"?><svg id="Layer_2" xmlns="http://www.w3.org/2000/svg" xmlns:xlink="http://www.w3.org/1999/xlink" viewBox="0 0 1863.15 867.06"><defs><style>.cls-1{fill:#666;}.cls-2{fill:none;stroke:#58c4dc;stroke-miterlimit:10;stroke-width:8px;}.cls-3{clip-path:url(#clippath);}</style><clipPath id="clippath"><path class="cls-1" d="M195.19,443.88c0,12.52-3.64,16.77-15.37,16.77h-4.25v-98.86h4.25c10.79,0,14.74,3.6,15.3,13.92h54.05c-.1-16.07-1.83-31.22-15.56-42.03-9.65-7.46-22.18-9.17-34.24-9.58-2.36-9.02-9.51-12.28-9.51-12.28l-47.39-.92c12.14.63,16.43,7.14,17.83,13.08h-45.58v30.74c6.27,2.63,6.68,7.67,6.88,13.73v84.31c-.19,5.86-.82,11.12-6.88,13.75v30.72h76.42c16.38,0,31.76-.99,44.09-12.72,13.13-12.35,13.95-25.48,13.95-42.47v-61.29h-53.98v63.12ZM203.78,342.84h22.73v10.11h-22.73v-10.11Z"/></clipPath></defs><g id="Layer_1-2"><polygon class="cls-2" points="746.89 647.98 746.89 219.07 375.45 4.62 4 219.07 4 647.98 375.45 862.44 746.89 647.98"/><line class="cls-2" x1="709.03" y1="628.27" x2="388.07" y2="815.79"/><line class="cls-2" x1="370.04" y1="49.46" x2="49.08" y2="236.99"/><path class="cls-1" d="M926.3,321.01c0,18.85-8.04,29.6-24.13,32.24l25.45,54.67h-21.4l-25.07-54.01h-42.32v54.01h-19.32v-135.17h73.99c21.87,0,32.8,10.97,32.8,32.9v15.36ZM838.83,334.58h53.63c5.15,0,8.86-1.13,11.12-3.39s3.39-5.97,3.39-11.12v-13.48c0-5.15-1.13-8.86-3.39-11.12s-5.97-3.39-11.12-3.39h-53.63v42.51Z"/><path class="cls-1" d="M1035.83,367.2h-66.45v22.15h66.45v18.57h-66.45c-2.51,0-4.9-.49-7.16-1.46-2.26-.97-4.23-2.29-5.89-3.96-1.67-1.66-2.99-3.63-3.96-5.89-.98-2.26-1.46-4.68-1.46-7.26v-63.25c0-2.58.49-5,1.46-7.26.97-2.26,2.29-4.23,3.96-5.89s3.63-2.98,5.89-3.96c2.26-.97,4.65-1.46,7.16-1.46h47.88c2.58,0,5,.49,7.26,1.46,2.26.98,4.23,2.3,5.89,3.96,1.66,1.67,2.98,3.63,3.96,5.89.97,2.26,1.46,4.68,1.46,7.26v41.1ZM969.38,326.1v22.53h47.88v-22.53h-47.88Z"/><path class="cls-1" d="M1059.89,364.08c0-2.58.49-4.98,1.46-7.21.97-2.23,2.29-4.19,3.96-5.89,1.66-1.7,3.63-3.03,5.89-4.01,2.26-.97,4.65-1.46,7.16-1.46h47.88v-19.42h-60.61v-18.57h60.61c2.58,0,4.99.49,7.26,1.46,2.26.98,4.23,2.3,5.89,3.96,1.66,1.67,2.98,3.63,3.96,5.89s1.46,4.68,1.46,7.26v81.82h-18.57v-16.97c-.19,2.33-.82,4.52-1.89,6.6-1.07,2.07-2.44,3.88-4.1,5.42-1.67,1.54-3.57,2.75-5.7,3.63-2.14.88-4.4,1.32-6.79,1.32h-29.41c-2.51,0-4.9-.49-7.16-1.46-2.26-.97-4.23-2.29-5.89-3.96-1.67-1.66-2.99-3.63-3.96-5.89-.98-2.26-1.46-4.68-1.46-7.26v-25.26ZM1078.37,389.35h47.88v-25.26h-47.88v25.26Z"/><path class="cls-1" d="M1187.45,326.1v63.25h47.88v-16.97h18.57v16.97c0,2.58-.49,5-1.46,7.26-.98,2.26-2.3,4.23-3.96,5.89s-3.63,2.99-5.89,3.96c-2.26.98-4.68,1.46-7.26,1.46h-47.88c-2.51,0-4.9-.49-7.16-1.46-2.26-.97-4.23-2.29-5.89-3.96-1.67-1.66-2.99-3.63-3.96-5.89-.98-2.26-1.46-4.68-1.46-7.26v-63.25c0-2.58.49-5,1.46-7.26.97-2.26,2.29-4.23,3.96-5.89s3.63-2.98,5.89-3.96c2.26-.97,4.65-1.46,7.16-1.46h47.88c2.58,0,5,.49,7.26,1.46,2.26.98,4.23,2.3,5.89,3.96,1.66,1.67,2.98,3.63,3.96,5.89.97,2.26,1.46,4.68,1.46,7.26v16.97h-18.57v-16.97h-47.88Z"/><path class="cls-1" d="M1275.43,307.53h24.51v-30.92h18.57v30.92h32.99v18.57h-32.99v63.25h32.99v18.57h-32.99c-2.51,0-4.9-.49-7.16-1.46-2.26-.97-4.24-2.29-5.94-3.96-1.7-1.66-3.03-3.63-4.01-5.89-.98-2.26-1.46-4.68-1.46-7.26v-63.25h-24.51v-18.57Z"/><path class="cls-1" d="M819.51,460.98c0-2.64.5-5.14,1.51-7.49,1-2.36,2.39-4.4,4.15-6.13,1.76-1.73,3.82-3.11,6.17-4.15s4.85-1.56,7.49-1.56h73.33c2.64,0,5.14.52,7.49,1.56s4.41,2.42,6.17,4.15c1.76,1.73,3.14,3.77,4.15,6.13,1,2.36,1.51,4.85,1.51,7.49v17.44h-19.32v-17.44h-73.33v96.52h73.33v-17.34h19.32v17.34c0,2.64-.5,5.14-1.51,7.49-1.01,2.36-2.39,4.42-4.15,6.17s-3.82,3.14-6.17,4.15c-2.36,1.01-4.85,1.51-7.49,1.51h-73.33c-2.64,0-5.14-.5-7.49-1.51-2.36-1-4.42-2.39-6.17-4.15-1.76-1.76-3.14-3.82-4.15-6.17-1.01-2.36-1.51-4.85-1.51-7.49v-96.52Z"/><path class="cls-1" d="M1042.21,558.26c0,2.58-.49,5-1.46,7.26-.98,2.26-2.3,4.23-3.96,5.89s-3.61,2.99-5.84,3.96c-2.23.98-4.64,1.46-7.21,1.46h-49.86c-2.51,0-4.9-.49-7.16-1.46-2.26-.97-4.23-2.29-5.89-3.96-1.67-1.66-2.99-3.63-3.96-5.89-.98-2.26-1.46-4.68-1.46-7.26v-63.25c0-2.58.49-5,1.46-7.26.97-2.26,2.29-4.23,3.96-5.89s3.63-2.98,5.89-3.96c2.26-.97,4.65-1.46,7.16-1.46h49.86c2.58,0,4.98.49,7.21,1.46,2.23.98,4.18,2.3,5.84,3.96,1.66,1.67,2.98,3.63,3.96,5.89.97,2.26,1.46,4.68,1.46,7.26v63.25ZM973.88,495.01v63.25h49.86v-63.25h-49.86Z"/><path class="cls-1" d="M1145.85,495.01v81.82h-18.57v-81.82h-42.51v81.82h-18.47v-100.39h18.47v17.72c.12-2.45.69-4.76,1.7-6.93,1-2.17,2.34-4.05,4.01-5.66,1.66-1.6,3.6-2.86,5.8-3.77,2.2-.91,4.56-1.37,7.07-1.37h23.94c2.45,0,4.77.46,6.98,1.37,2.2.91,4.15,2.17,5.84,3.77s3.06,3.49,4.1,5.66,1.59,4.48,1.65,6.93c.12-2.45.67-4.76,1.65-6.93.97-2.17,2.29-4.05,3.96-5.66,1.66-1.6,3.6-2.86,5.8-3.77,2.2-.91,4.56-1.37,7.07-1.37h23.94c2.58,0,5,.49,7.26,1.46,2.26.98,4.23,2.3,5.89,3.96,1.66,1.67,2.98,3.63,3.96,5.89.97,2.26,1.46,4.68,1.46,7.26v81.82h-18.57v-81.82h-42.42Z"/><path class="cls-1" d="M1319.92,558.26c0,2.58-.49,5-1.46,7.26-.98,2.26-2.3,4.23-3.96,5.89s-3.63,2.99-5.89,3.96c-2.26.98-4.68,1.46-7.26,1.46h-51.75v40.53h-18.47v-140.92h18.47v16.97c.19-2.39.82-4.6,1.89-6.65,1.07-2.04,2.42-3.83,4.05-5.37,1.63-1.54,3.53-2.75,5.7-3.63,2.17-.88,4.48-1.32,6.93-1.32h33.18c2.58,0,5,.49,7.26,1.46,2.26.98,4.23,2.3,5.89,3.96,1.66,1.67,2.98,3.63,3.96,5.89.97,2.26,1.46,4.68,1.46,7.26v63.25ZM1301.35,558.26v-63.25h-51.75v63.25h51.75Z"/><path class="cls-1" d="M1430.78,558.26c0,2.58-.49,5-1.46,7.26-.98,2.26-2.3,4.23-3.96,5.89s-3.61,2.99-5.84,3.96c-2.23.98-4.64,1.46-7.21,1.46h-49.86c-2.51,0-4.9-.49-7.16-1.46-2.26-.97-4.23-2.29-5.89-3.96-1.67-1.66-2.99-3.63-3.96-5.89-.98-2.26-1.46-4.68-1.46-7.26v-63.25c0-2.58.49-5,1.46-7.26.97-2.26,2.29-4.23,3.96-5.89s3.63-2.98,5.89-3.96c2.26-.97,4.65-1.46,7.16-1.46h49.86c2.58,0,4.98.49,7.21,1.46,2.23.98,4.18,2.3,5.84,3.96,1.66,1.67,2.98,3.63,3.96,5.89.97,2.26,1.46,4.68,1.46,7.26v63.25ZM1362.44,495.01v63.25h49.86v-63.25h-49.86Z"/><path class="cls-1" d="M1543.66,576.83h-18.57v-81.82h-51.75v81.82h-18.47v-100.39h18.47v17.72c.12-2.45.69-4.76,1.7-6.93,1-2.17,2.34-4.05,4.01-5.66,1.66-1.6,3.6-2.86,5.8-3.77,2.2-.91,4.56-1.37,7.07-1.37h33.18c2.58,0,5,.49,7.26,1.46,2.26.98,4.23,2.3,5.89,3.96,1.66,1.67,2.98,3.63,3.96,5.89.97,2.26,1.46,4.68,1.46,7.26v81.82Z"/><path class="cls-1" d="M1652.72,536.11h-66.45v22.15h66.45v18.57h-66.45c-2.51,0-4.9-.49-7.16-1.46-2.26-.97-4.23-2.29-5.89-3.96-1.67-1.66-2.99-3.63-3.96-5.89-.98-2.26-1.46-4.68-1.46-7.26v-63.25c0-2.58.49-5,1.46-7.26.97-2.26,2.29-4.23,3.96-5.89s3.63-2.98,5.89-3.96c2.26-.97,4.65-1.46,7.16-1.46h47.88c2.58,0,5,.49,7.26,1.46,2.26.98,4.23,2.3,5.89,3.96,1.66,1.67,2.98,3.63,3.96,5.89.97,2.26,1.46,4.68,1.46,7.26v41.1ZM1586.27,495.01v22.53h47.88v-22.53h-47.88Z"/><path class="cls-1" d="M1765.58,576.83h-18.57v-81.82h-51.75v81.82h-18.47v-100.39h18.47v17.72c.12-2.45.69-4.76,1.7-6.93,1-2.17,2.34-4.05,4.01-5.66,1.66-1.6,3.6-2.86,5.8-3.77,2.2-.91,4.56-1.37,7.07-1.37h33.18c2.58,0,5,.49,7.26,1.46,2.26.98,4.23,2.3,5.89,3.96,1.66,1.67,2.98,3.63,3.96,5.89.97,2.26,1.46,4.68,1.46,7.26v81.82Z"/><path class="cls-1" d="M1787.08,476.44h24.51v-30.92h18.57v30.92h32.99v18.57h-32.99v63.25h32.99v18.57h-32.99c-2.51,0-4.9-.49-7.16-1.46-2.26-.97-4.24-2.29-5.94-3.96-1.7-1.66-3.03-3.63-4.01-5.89-.98-2.26-1.46-4.68-1.46-7.26v-63.25h-24.51v-18.57Z"/><path class="cls-1" d="M195.19,443.88c0,12.52-3.64,16.77-15.37,16.77h-4.25v-98.86h4.25c10.79,0,14.74,3.6,15.3,13.92h54.05c-.1-16.07-1.83-31.22-15.56-42.03-9.65-7.46-22.18-9.17-34.24-9.58-2.36-9.02-9.51-12.28-9.51-12.28l-47.39-.92c12.14.63,16.43,7.14,17.83,13.08h-45.58v30.74c6.27,2.63,6.68,7.67,6.88,13.73v84.31c-.19,5.86-.82,11.12-6.88,13.75v30.72h76.42c16.38,0,31.76-.99,44.09-12.72,13.13-12.35,13.95-25.48,13.95-42.47v-61.29h-53.98v63.12ZM203.78,342.84h22.73v10.11h-22.73v-10.11Z"/><g class="cls-3"><rect class="cls-1" x="203.78" y="342.84" width="22.73" height="10.11"/><rect class="cls-1" x="188.6" y="375.71" width="121.33" height="5.04"/></g><path class="cls-1" d="M303.09,391.7c4.55-7.82,9.28-11.65,18.56-11.65,1.64,0,3.46.18,5.09.55v39.12h-3.46c-14.92,0-18.2,8.37-18.2,21.84v11.1c0,3.64,0,8.74.73,12.37.73,3.82,1.82,4.73,5.46,6.55v25.66h-54.41v-26.02c5.82-3.82,5.28-9.1,5.28-15.1v-32.39c0-6.01.54-11.28-5.28-15.1v-26.02h46.22v9.1Z"/><path class="cls-1" d="M391.85,488.5c-9.1,7.64-18.02,11.1-29.84,11.1-20.02,0-32.57-12.56-32.57-32.75,0-22.93,13.83-29.66,33.12-36.03l27.66-8.92v-4c0-5.64-1.46-11.28-7.46-11.28-6.92,0-8.37,5.64-8.37,11.28v4.73h-40.22v-28.2c14.74-10.55,33.3-14.19,51.13-14.19,11.46,0,26.2,1.82,35.85,9.1,12.01,9.46,12.19,21.47,12.01,34.76v32.03c0,6-.54,11.28,5.28,15.47v25.66h-46.58v-8.74ZM390.22,448.47c-7.64,3.09-17.83,4.91-17.83,12.92,0,3.64,2.37,7.82,6.19,7.1,3.64,0,7.64-1.27,11.65-4.19v-15.83Z"/><path class="cls-1" d="M551.48,408.26c-5.64,3.46-5.28,8.37-5.28,14.19v69.51c0,12.92.55,30.39-9.46,40.03-9.83,9.64-26.39,11.28-39.49,11.28-19.11,0-33.48-2.91-50.22-12.19v-27.48h39.85c0,2.55.18,5.82,1.27,8.37,1.27,2.55,3.28,4.37,6.73,4.37,9.46,0,8.37-11.28,8.37-17.83v-7.28c-7.64,5.82-17.11,8.37-25.29,8.37-21.65,0-34.03-10.55-34.03-35.67v-43.13c0-24.93,6.37-40.58,32.03-40.58,10.19,0,20.2,2.73,28.39,8.92v-6.55h47.13v25.66ZM503.26,413.72c-2.18-1.46-5.1-2.37-7.83-2.37-8.55,0-8.55,7.64-8.55,14.19v25.29c0,6.19,0,16.2,8.73,16.2,2.37,0,5.46-.73,7.64-2v-51.31Z"/><path class="cls-1" d="M659.74,453.57c0,12.74-.36,27.11-10.74,36.03-10.37,8.92-25.66,10.01-38.76,10.01-11.83,0-28.57-.91-38.58-7.64-14.01-9.28-14.01-23.29-14.01-38.4v-29.84c0-12.37.18-25.84,10.92-34.21,10.37-8.19,24.38-9.28,37.3-9.28,11.65,0,29.11.91,39.12,6.73,13.83,8.37,14.74,22.2,14.74,36.76v29.84ZM600.61,457.21c0,6.19-.55,15.65,8.01,15.65s8.19-9.46,8.19-15.65v-33.12c0-6.19,1.27-17.11-8-17.11s-8.19,10.74-8.19,17.11v33.12Z"/></g></svg>